The Killing Strain {2010}

A man-made virus, 'The Killing Strain'-- an out-of-control swine flu-- turns infected humans into raging monsters. As it rapidly spreads, a group of uninfected survivors must make life-or-death decisions before the U.S. military firebombs the area in a desperate attempt contain the contagion. The survivors are unaware that the virus has already reached their group-- by infecting one of them-- and now the merciless metamorphic process has begun.
 
http://www.imdb.com/title/tt1669819/

General
Complete name                    :The Killing Strain {2010} DVDRiP XViD~Wolftatt2~.avi
Format                           : AVI
Format/Info                      : Audio Video Interleave
Format profile                   : OpenDML
File size                        : 1.10 GiB
Duration                         : 1h 41mn
Overall bit rate                 : 1 545 Kbps
Movie name                       : A_KILLING_STRAIN.Title4.DVDRip
Writing application              : Lavf52.78.4
Original source form/Name        : A_KILLING_STRAIN

Video
ID                               : 0
Format                           : MPEG-4 Visual
Format profile                   : Advanced Simple@L5
Format settings, BVOP            : 2
Format settings, QPel            : No
Format settings, GMC             : No warppoints
Format settings, Matrix          : Default (H.263)
Muxing mode                      : Packed bitstream
Codec ID                         : XVID
Codec ID/Hint                    : XviD
Duration                         : 1h 41mn
Bit rate                         : 175 Kbps
Width                            : 720 pixels
Height                           : 402 pixels
Display aspect ratio             : 16:9
Frame rate                       : 25.000 fps
Color space                      : YUV
Chroma subsampling               : 4:2:0
Bit depth                        : 8 bits
Scan type                        : Progressive
Compression mode                 : Lossy
Bits/(Pixel*Frame)               : 0.024
Stream size                      : 127 MiB (11%)

Audio
ID                               : 1
Format                           : AC-3
Format/Info                      : Audio Coding 3
Codec ID                         : 2000
Duration                         : 1h 41mn
Bit rate mode                    : Constant
Bit rate                         : 192 Kbps
Channel(s)                       : 2 channels
Sampling rate                    : 48.0 KHz
Compression mode                 : Lossy
Stream size                      : 12.2 MiB (1%)
Alignment                        : Aligned on interleaves
Interleave, duration             : 52 ms (1.30 video frame)

Thanks for downloading. 

Please Seed!

~Wolftatt2~